<mxfile host="app.diagrams.net" modified="2023-11-06T15:25:37.838Z" agent="Mozilla/5.0 (X11; Linux x86_64; rv:109.0) Gecko/20100101 Firefox/111.0" version="22.0.8" etag="MjBmZHAfsGFzT3xrc1jd" type="github">
  <diagram name="Page-1" id="zEJxzHUsNAy9Dk6mrdma">
    <mxGraphModel>
      <root>
        <mxCell id="0" />
        <mxCell id="1" parent="0" />
      </root>
    </mxGraphModel>
  </diagram>
</mxfile>
